# xmcd
#
# Track frame offsets:
#	150
#	31540
#	49961
#	75476
#	102175
#	136529
#	165021
#	179901
#	213577
#	246882
#
# Disc length: 3618 seconds
#
# Revision: 0
# Processed by: cddbd v1.5.1PL0 Copyright (c) Steve Scherf et al.
# Submitted via: EasyCDDAExtractor 7.1.3.1
#
DISCID=760e200a
DTITLE=Chuchumbre - Relicario
DYEAR=2005
DGENRE=Son Jarocha
TTITLE0=El Pajaro Cu
TTITLE1=Nicolas
TTITLE2=La Herlinda
TTITLE3=El Ahualulco
TTITLE4=El Cascabel
TTITLE5=El Fanguito
TTITLE6=El Aguanieve
TTITLE7=La Bruja
TTITLE8=El Toro Zamandu
TTITLE9=Relicario
EXTD=
EXTT0=
EXTT1=
EXTT2=
EXTT3=
EXTT4=
EXTT5=
EXTT6=
EXTT7=
EXTT8=
EXTT9=
PLAYORDER=
